# Blender v2.76 (sub 0) OBJ File: ''
# www.blender.org
mtllib untitled.mtl
o Cube.003_Cube.004
v -0.219877 -0.075209 -0.148858
v -0.219877 1.755237 -0.148858
v 0.484264 -0.075209 -0.876931
v 0.484264 1.755237 -0.876931
v 0.508196 -0.075209 0.555282
v 0.508196 1.755237 0.555282
v 1.212336 -0.075209 -0.172790
v 1.212336 1.755237 -0.172790
vn -0.718800 0.000000 -0.695200
vn 0.695200 0.000000 -0.718800
vn 0.718800 0.000000 0.695200
vn -0.695200 0.000000 0.718800
vn 0.000000 -1.000000 -0.000000
vn 0.000000 1.000000 0.000000
usemtl None
s off
f 4//1 3//1 1//1
f 8//2 7//2 3//2
f 6//3 5//3 7//3
f 2//4 1//4 5//4
f 1//5 3//5 7//5
f 8//6 4//6 2//6
f 2//1 4//1 1//1
f 4//2 8//2 3//2
f 8//3 6//3 7//3
f 6//4 2//4 5//4
f 5//5 1//5 7//5
f 6//6 8//6 2//6
o Plane.001_Plane.002
v 19.774448 0.004534 0.946725
v 30.960140 0.004534 0.946725
v 19.774448 0.004534 -1.053275
v 30.960140 0.004534 -1.053275
vn 0.000000 1.000000 0.000000
usemtl None
s off
f 10//7 12//7 11//7
f 9//7 10//7 11//7
o Plane
v -3.370071 0.088278 5.106232
v 20.373327 0.088278 5.106232
v -3.370071 0.088278 -5.076435
v 20.373327 0.088278 -5.076435
vn 0.000000 1.000000 0.000000
usemtl None
s off
f 14//8 16//8 15//8
f 13//8 14//8 15//8
o Plane.002_Plane.003
v 30.302233 -0.116367 0.946725
v 40.931820 3.366675 0.946725
v 30.302233 -0.116367 -1.053275
v 40.931820 3.366675 -1.053275
vn -0.311400 0.950300 0.000000
usemtl None
s off
f 18//9 20//9 19//9
f 17//9 18//9 19//9
